#!OML:ASF E:\Steps\Project 1\Capture day 1\Session 2\Subject.ASF
:FULLY-SPECIFIED
:DEGREES
287
root 4.67822 17.2713 17.7436 -144.832 2.8879 181.636
lowerback -8.4207 -3.51206 -3.9539
upperback 5.59017 -4.26091 1.79832
thorax 11.2203 -2.38028 3.39698
lowerneck -3.85204 1.75259 -1.30007
upperneck 14.1743 2.8401 1.06034
head 4.85116 1.56569 0.706507
rclavicle 2.38542e-015 -1.51076e-014
rhumerus -50.4808 -22.707 -66.3614
rradius 54.7746
rwrist -6.1032
rhand -8.52921 -52.4671
rfingers 7.12502
rthumb 17.3996 278.292
lclavicle 2.38542e-015 -1.51076e-014
lhumerus -20.2209 -18.2752 74.6403
lradius 42.1997
lwrist 2.62787
lhand -22.454 -13.2807
lfingers 7.12502
lthumb 3.97032 16.662
rfemur -52.163 2.1065 -4.57755
rtibia 59.2055
rfoot -23.4428 -22.0637
rtoes -21.9514
lfemur -44.0482 -6.01274 -13.3651
ltibia 17.1063
lfoot -5.50804 8.67798
ltoes -38.0079
288
root 4.65371 17.2703 17.738 -144.998 2.83442 181.495
lowerback -8.54593 -3.51487 -4.0334
upperback 5.60784 -4.25014 1.80023
thorax 11.3223 -2.38277 3.43904
lowerneck -3.58382 1.76467 -1.33446
upperneck 14.0242 2.87333 0.937872
head 4.76087 1.57433 0.670929
rclavicle -4.73108e-014 1.66979e-014
rhumerus -50.7594 -22.788 -66.2556
rradius 54.9139
rwrist -6.08708
rhand -8.29933 -52.5
rfingers 7.12502
rthumb 17.6208 278.279
lclavicle -4.73108e-014 1.66979e-014
lhumerus -20.53 -18.1654 74.8416
lradius 42.0225
lwrist 2.6642
lhand -22.4874 -13.1977
lfingers 7.12502
lthumb 3.9381 16.7457
rfemur -52.9515 2.32565 -3.03498
rtibia 59.4148
rfoot -23.3099 -21.3573
rtoes -25.1779
lfemur -43.7578 -5.94825 -13.7711
ltibia 16.9029
lfoot -5.41348 8.39929
ltoes -38.6236
289
root 4.63341 17.2687 17.7306 -145.155 2.74594 181.403
lowerback -8.72205 -3.52559 -4.05915
upperback 5.60515 -4.2572 1.80009
thorax 11.4288 -2.38995 3.44309
lowerneck -3.48115 1.75696 -1.38886
upperneck 14.0817 2.85905 1.07478
head 4.75837 1.57645 0.72081
rclavicle -3.85642e-014 6.36111e-015
rhumerus -51.0439 -22.7236 -66.2629
rradius 55.0358
rwrist -6.21345
rhand -8.192 -52.2652
rfingers 7.12502
rthumb 17.7241 278.523
lclavicle -3.85642e-014 6.36111e-015
lhumerus -20.8474 -17.9748 74.9846
lradius 41.7899
lwrist 2.65319
lhand -22.4489 -12.9288
lfingers 7.12502
lthumb 3.97531 17.0139
rfemur -53.7176 2.6304 -1.38661
rtibia 59.5298
rfoot -23.3899 -20.5428
rtoes -27.7505
lfemur -43.5209 -5.71234 -14.2239
ltibia 16.874
lfoot -5.31237 8.08842
ltoes -41.0023
290
root 4.61322 17.2684 17.7274 -145.232 2.70408 181.272
lowerback -8.57945 -3.52421 -4.16852
upperback 5.34044 -4.26386 1.82949
thorax 11.0561 -2.39889 3.54725
lowerneck -2.99524 1.64226 -1.63687
upperneck 14.1859 2.7269 1.25307
head 4.70415 1.52157 0.80556
rclavicle -6.36111e-015 2.46493e-014
rhumerus -51.6661 -22.4078 -66.1061
rradius 55.202
rwrist -6.39303
rhand -8.30507 -52.1362
rfingers 7.12502
rthumb 17.6153 278.642
lclavicle -6.36111e-015 2.46493e-014
lhumerus -21.6147 -17.6234 75.3243
lradius 41.6225
lwrist 2.45297
lhand -22.5325 -12.98
lfingers 7.12502
lthumb 3.89455 16.9642
rfemur -54.439 2.92475 0.176363
rtibia 59.3722
rfoot -23.6913 -19.4027
rtoes -29.385
lfemur -43.4292 -5.53092 -14.6228
ltibia 16.8481
lfoot -5.37498 7.63448
ltoes -40.6124
291
root 4.58878 17.2696 17.7285 -145.231 2.72152 181.12
lowerback -8.88703 -3.49362 -4.37031
upperback 5.32822 -4.19163 1.86509
thorax 11.2413 -2.38468 3.69835
lowerneck -2.81978 1.62797 -1.55928
upperneck 14.0801 2.71448 1.13761
head 4.64512 1.51363 0.753314
rclavicle 8.34896e-015 -1.59028e-015
rhumerus -51.863 -22.4347 -65.9791
rradius 55.3797
rwrist -6.51412
rhand -8.31198 -52.1855
rfingers 7.12502
rthumb 17.6086 278.592
lclavicle 8.34896e-015 -1.59028e-015
lhumerus -21.8383 -17.2832 75.5781
lradius 41.4735
lwrist 2.47373
lhand -22.4457 -12.8841
lfingers 7.12502
lthumb 3.97834 17.0585
rfemur -55.0847 3.12822 1.70844
rtibia 58.8893
rfoot -23.9794 -18.384
rtoes -31.6131
lfemur -43.4502 -5.63465 -14.883
ltibia 16.8225
lfoot -5.4454 7.46934
ltoes -38.8327
292
root 4.56451 17.2699 17.7309 -145.123 2.752 181.085
lowerback -8.98382 -3.42821 -4.36918
upperback 5.10542 -4.11494 1.87242
thorax 11.0392 -2.34564 3.72027
lowerneck -2.50367 1.59167 -1.45081
upperneck 13.7334 2.68994 1.03878
head 4.9957 1.50512 0.768365
rclavicle -3.81667e-014 -3.18055e-015
rhumerus -52.3142 -22.2047 -65.8879
rradius 55.6433
rwrist -6.71193
rhand -8.16871 -52.4972
rfingers 7.12502
rthumb 17.7465 278.293
lclavicle -3.81667e-014 -3.18055e-015
lhumerus -22.4107 -17.0317 75.8402
lradius 41.4067
lwrist 2.57785
lhand -22.4016 -12.6885
lfingers 7.12502
lthumb 4.02092 17.2533
rfemur -55.789 3.32496 3.3886
rtibia 58.278
rfoot -24.4592 -17.3814
rtoes -33.2946
lfemur -43.5783 -5.75703 -14.9928
ltibia 16.8072
lfoot -5.34172 7.67375
ltoes -39.9108
293
root 4.54628 17.2693 17.7297 -145.078 2.76836 181.05
lowerback -9.35205 -3.4618 -4.40925
upperback 5.10062 -4.14694 1.89372
thorax 11.2643 -2.36938 3.74197
lowerneck -2.54999 1.64276 -1.30093
upperneck 13.7916 2.77741 0.843599
head 5.03065 1.54602 0.68104
rclavicle 7.95139e-015 -1.47101e-014
rhumerus -52.28 -21.9153 -66.0311
rradius 55.8084
rwrist -6.82407
rhand -8.19732 -52.7692
rfingers 7.12502
rthumb 17.719 278.018
lclavicle 7.95139e-015 -1.47101e-014
lhumerus -22.749 -16.3115 75.9681
lradius 41.3177
lwrist 2.47137
lhand -22.6584 -12.7698
lfingers 7.12502
lthumb 3.77299 17.1765
rfemur -56.3437 3.63687 5.05874
rtibia 57.4417
rfoot -24.8542 -16.2296
rtoes -34.0664
lfemur -43.6015 -6.01292 -14.9607
ltibia 16.7411
lfoot -5.41421 7.90006
ltoes -39.7215
294
root 4.52953 17.2679 17.7241 -145.155 2.83057 180.957
lowerback -9.64295 -3.51335 -4.59918
upperback 5.10282 -4.18751 1.95868
thorax 11.4699 -2.41043 3.89735
lowerneck -2.41421 1.69488 -1.47772
upperneck 13.7371 2.85254 0.904409
head 4.97814 1.57815 0.733758
rclavicle 2.26615e-014 -1.78906e-014
rhumerus -52.2335 -21.6369 -65.9752
rradius 55.9174
rwrist -7.09641
rhand -8.22902 -51.8059
rfingers 7.12502
rthumb 17.6885 278.979
lclavicle 2.26615e-014 -1.78906e-014
lhumerus -23.1616 -15.5676 76.1951
lradius 41.2196
lwrist 2.66778
lhand -22.9705 -12.9928
lfingers 7.12502
lthumb 3.47157 16.9587
rfemur -56.6841 4.12268 6.59953
rtibia 56.456
rfoot -25.275 -15.0271
rtoes -35.2517
lfemur -43.4111 -6.25274 -15.006
ltibia 16.5619
lfoot -5.6508 7.8315
ltoes -36.4863
295
root 4.50951 17.2676 17.7198 -145.194 2.87362 180.922
lowerback -9.88793 -3.55842 -4.67239
upperback 4.97946 -4.24507 2.03862
thorax 11.4982 -2.44826 4.00431
lowerneck -1.86221 1.69396 -1.91892
upperneck 13.6717 2.85784 1.18506
head 4.83157 1.58192 0.897445
rclavicle -4.73108e-014 -9.54166e-015
rhumerus -52.3825 -21.2597 -65.8432
rradius 56.082
rwrist -7.43976
rhand -8.02735 -49.7176
rfingers 7.12502
rthumb 17.8825 281.085
lclavicle -4.73108e-014 -9.54166e-015
lhumerus -23.8275 -15.0665 76.4611
lradius 41.1526
lwrist 3.13702
lhand -23.2578 -13.055
lfingers 7.12502
lthumb 3.19416 16.9008
rfemur -56.899 4.49155 8.23865
rtibia 55.2626
rfoot -25.8205 -13.6136
rtoes -36.7329
lfemur -43.2581 -6.31858 -15.1161
ltibia 16.3834
lfoot -5.66951 7.68534
ltoes -34.9663
296
root 4.49153 17.2697 17.719 -145.25 2.86412 180.899
lowerback -9.92451 -3.4959 -4.56678
upperback 5.04448 -4.16802 2.00761
thorax 11.5726 -2.40305 3.92449
lowerneck -2.49898 1.64228 -1.83893
upperneck 14.4037 2.78639 1.22338
head 4.68466 1.55492 0.829634
rclavicle 2.82274e-014 -7.15625e-015
rhumerus -52.2403 -21.3991 -66.0089
rradius 56.2807
rwrist -7.38112
rhand -7.93577 -48.7519
rfingers 7.12502
rthumb 17.9706 282.058
lclavicle 2.82274e-014 -7.15625e-015
lhumerus -23.9478 -14.8141 76.4618
lradius 41.1987
lwrist 3.40031
lhand -23.4034 -12.8995
lfingers 7.12502
lthumb 3.05355 17.0584
rfemur -56.9825 4.67772 10.0008
rtibia 53.917
rfoot -26.2751 -12.1147
rtoes -37.925
lfemur -43.1709 -6.3468 -15.2229
ltibia 16.3813
lfoot -5.79772 7.58144
ltoes -33.8701
297
root 4.47741 17.2722 17.717 -145.443 2.85802 180.768
lowerback -9.82923 -3.452 -4.65264
upperback 5.02972 -4.09546 1.96569
thorax 11.4937 -2.37127 3.94703
lowerneck -2.70847 1.65819 -1.62104
upperneck 14.5717 2.81416 1.13038
head 4.77548 1.57547 0.771383
rclavicle 3.4191e-014 1.07344e-014
rhumerus -52.3475 -21.4441 -66.1012
rradius 56.4697
rwrist -7.07873
rhand -8.13662 -49.0913
rfingers 7.12502
rthumb 17.7774 281.701
lclavicle 3.4191e-014 1.07344e-014
lhumerus -24.2816 -14.5599 76.5621
lradius 41.2562
lwrist 3.61623
lhand -23.1963 -12.6582
lfingers 7.12502
lthumb 3.25357 17.2967
rfemur -56.8351 4.87331 11.6573
rtibia 52.3908
rfoot -26.462 -10.7749
rtoes -39.2429
lfemur -42.9524 -6.09309 -15.6486
ltibia 16.4172
lfoot -5.94103 7.13743
ltoes -32.4234
298
root 4.4626 17.275 17.7114 -145.607 2.81994 180.615
lowerback -9.83172 -3.4145 -4.70189
upperback 4.98899 -4.03255 1.89592
thorax 11.4396 -2.3404 3.91225
lowerneck -2.60835 1.51895 -1.66011
upperneck 14.7675 2.62616 1.31628
head 4.81802 1.50035 0.827733
rclavicle -3.57812e-015 -1.23246e-014
rhumerus -52.5346 -21.5887 -66.1276
rradius 56.6629
rwrist -6.78512
rhand -8.22286 -49.5487
rfingers 7.12502
rthumb 17.6944 281.236
lclavicle -3.57812e-015 -1.23246e-014
lhumerus -24.5637 -14.4612 76.6571
lradius 41.164
lwrist 3.98819
lhand -22.9233 -12.3938
lfingers 7.12502
lthumb 3.51716 17.5569
rfemur -56.5709 5.09164 13.1742
rtibia 50.6736
rfoot -26.6002 -9.32736
rtoes -40.9106
lfemur -42.7604 -5.69425 -16.1933
ltibia 16.4159
lfoot -5.68796 6.55003
ltoes -33.923
299
root 4.44723 17.2743 17.7027 -145.675 2.80898 180.545
lowerback -10.0889 -3.4112 -4.70168
upperback 4.9562 -4.02058 1.88809
thorax 11.5551 -2.3366 3.89493
lowerneck -2.58726 1.54234 -1.4901
upperneck 14.8311 2.66213 1.25205
head 4.83657 1.52589 0.782328
rclavicle 3.06128e-014 -1.86858e-014
rhumerus -52.5794 -21.5385 -66.1438
rradius 56.9074
rwrist -6.7268
rhand -8.13418 -49.9483
rfingers 7.12502
rthumb 17.7797 280.844
lclavicle 3.06128e-014 -1.86858e-014
lhumerus -25.0482 -14.1281 76.7693
lradius 41.2602
lwrist 4.30332
lhand -22.7748 -12.2383
lfingers 7.12502
lthumb 3.6606 17.71
rfemur -56.2926 5.49397 14.5048
rtibia 48.8825
rfoot -26.8878 -7.60247
rtoes -42.631
lfemur -42.6543 -5.60771 -16.4413
ltibia 16.4274
lfoot -5.47851 6.35072
ltoes -36.4699
300
root 4.43149 17.2684 17.692 -145.781 2.72442 180.388
lowerback -10.3609 -3.36158 -4.66532
upperback 5.04862 -3.93642 1.80893
thorax 11.8048 -2.29441 3.79214
lowerneck -2.71828 1.37752 -1.45459
upperneck 14.8372 2.42585 1.28725
head 4.86364 1.4124 0.777529
rclavicle 2.78299e-015 3.97569e-015
rhumerus -52.4697 -21.802 -66.2253
rradius 57.1616
rwrist -6.79186
rhand -8.01727 -50.2484
rfingers 7.12502
rthumb 17.8922 280.555
lclavicle 2.78299e-015 3.97569e-015
lhumerus -25.1305 -13.9748 76.7649
lradius 41.1846
lwrist 4.76257
lhand -22.7049 -12.509
lfingers 7.12502
lthumb 3.72803 17.4381
rfemur -55.8399 5.92232 15.5152
rtibia 46.9038
rfoot -27.1222 -5.31041
rtoes -42.9372
lfemur -42.4738 -5.8351 -16.6258
ltibia 16.3384
lfoot -5.53664 6.33935
ltoes -37.0764
301
root 4.41674 17.2609 17.6837 -145.904 2.55695 180.054
lowerback -10.4569 -3.44166 -4.79131
upperback 5.12415 -4.0151 1.78684
thorax 11.9677 -2.3436 3.81595
lowerneck -3.5622 1.42222 -1.02509
upperneck 15.1916 2.52345 0.752318
head 5.12756 1.44368 0.559711
rclavicle -8.74653e-015 -4.37326e-015
rhumerus -52.1864 -21.8557 -66.3266
rradius 57.3886
rwrist -7.01497
rhand -8.24245 -50.3325
rfingers 7.12502
rthumb 17.6755 280.451
lclavicle -8.74653e-015 -4.37326e-015
lhumerus -25.0184 -13.699 76.8567
lradius 40.8273
lwrist 5.13799
lhand -22.8498 -12.833
lfingers 7.12502
lthumb 3.58812 17.1165
rfemur -55.3668 6.19705 16.2051
rtibia 44.9176
rfoot -27.2026 -2.71737
rtoes -42.3328
lfemur -42.2857 -6.02764 -17.0575
ltibia 16.1711
lfoot -5.50426 6.03299
ltoes -36.9991
